<svg width="140" height="57" viewBox="0 0 140 57" fill="none" xmlns="http://www.w3.org/2000/svg">
<mask id="path-1-outside-1_5_79" maskUnits="userSpaceOnUse" x="-1" y="-1" width="142" height="59" fill="black">
<rect fill="white" x="-1" y="-1" width="142" height="59"/>
<path d="M0.281469 56V1.17483H18.7796C22.349 1.17483 25.3204 1.79946 27.6941 3.04873C30.0855 4.29801 31.8791 6.00237 33.0748 8.16182C34.2706 10.3213 34.8684 12.7752 34.8684 15.5236C34.8684 17.808 34.4847 19.7622 33.7173 21.3863C32.9499 23.0103 31.9059 24.322 30.5852 25.3215C29.2646 26.3209 27.7922 27.0437 26.1682 27.4898V27.9182C27.935 28.0431 29.6483 28.6677 31.308 29.7921C32.9678 30.8986 34.333 32.4512 35.4038 34.4501C36.4746 36.4489 37.0101 38.8404 37.0101 41.6245C37.0101 44.3907 36.3943 46.8625 35.1629 49.0398C33.9315 51.1992 32.0397 52.9036 29.4877 54.1529C26.9534 55.3843 23.7232 56 19.7969 56H0.281469ZM5.28748 51.5026H19.7969C24.0266 51.5026 27.1497 50.5657 29.1664 48.6918C31.2009 46.8179 32.2182 44.4621 32.2182 41.6245C32.2182 39.5364 31.7096 37.6446 30.6923 35.9492C29.6929 34.2359 28.2741 32.8796 26.4359 31.8801C24.6155 30.8807 22.4739 30.381 20.011 30.381H5.28748V51.5026ZM5.28748 25.9372H19.2347C21.3942 25.9372 23.2859 25.491 24.91 24.5987C26.534 23.7063 27.8011 22.4749 28.7113 20.9044C29.6215 19.3339 30.0766 17.5403 30.0766 15.5236C30.0766 12.6146 29.1307 10.2499 27.239 8.42952C25.3472 6.59131 22.5274 5.6722 18.7796 5.6722H5.28748V25.9372ZM92.0293 18.3077H86.9965C86.6217 16.4338 85.9436 14.7027 84.962 13.1143C83.9983 11.5081 82.7847 10.1071 81.3213 8.91139C79.8578 7.71566 78.1981 6.78762 76.342 6.12729C74.486 5.46696 72.4782 5.1368 70.3188 5.1368C66.8565 5.1368 63.6976 6.03806 60.8421 7.84058C58.0045 9.6431 55.729 12.2933 54.0158 15.7913C52.3203 19.2714 51.4726 23.5368 51.4726 28.5874C51.4726 33.6737 52.3203 37.9569 54.0158 41.4371C55.729 44.9172 58.0045 47.5585 60.8421 49.361C63.6976 51.1457 66.8565 52.038 70.3188 52.038C72.4782 52.038 74.486 51.7079 76.342 51.0475C78.1981 50.3872 79.8578 49.4681 81.3213 48.2902C82.7847 47.0945 83.9983 45.6935 84.962 44.0873C85.9436 42.4811 86.6217 40.741 86.9965 38.8671H92.0293C91.5831 41.3835 90.7443 43.7304 89.5129 45.9077C88.2993 48.0671 86.7467 49.9589 84.8549 51.5829C82.981 53.207 80.8216 54.4741 78.3766 55.3843C75.9316 56.2945 73.2456 56.7496 70.3188 56.7496C65.7143 56.7496 61.6274 55.5984 58.058 53.2962C54.4887 50.9761 51.6868 47.7102 49.6522 43.4984C47.6356 39.2865 46.6272 34.3162 46.6272 28.5874C46.6272 22.8586 47.6356 17.8883 49.6522 13.6765C51.6868 9.46463 54.4887 6.2076 58.058 3.90537C61.6274 1.5853 65.7143 0.425262 70.3188 0.425262C73.2456 0.425262 75.9316 0.880354 78.3766 1.79054C80.8216 2.68288 82.981 3.94999 84.8549 5.59189C86.7467 7.21595 88.2993 9.1077 89.5129 11.2672C90.7443 13.4266 91.5831 15.7735 92.0293 18.3077ZM133.556 14.8811C133.253 11.8293 131.906 9.40217 129.514 7.59965C127.123 5.79713 124.116 4.89587 120.493 4.89587C117.941 4.89587 115.692 5.33312 113.747 6.20761C111.819 7.0821 110.302 8.29567 109.196 9.84834C108.107 11.3832 107.563 13.1321 107.563 15.0953C107.563 16.5409 107.875 17.808 108.5 18.8966C109.124 19.9853 109.963 20.9222 111.016 21.7075C112.087 22.4749 113.265 23.1352 114.55 23.6885C115.852 24.2417 117.164 24.7057 118.485 25.0805L124.267 26.7403C126.016 27.2221 127.765 27.8378 129.514 28.5874C131.263 29.337 132.86 30.2829 134.306 31.425C135.769 32.5494 136.938 33.9325 137.813 35.5744C138.705 37.1985 139.151 39.1527 139.151 41.4371C139.151 44.3639 138.393 46.9963 136.876 49.3342C135.359 51.6722 133.182 53.5282 130.344 54.9024C127.506 56.2588 124.107 56.937 120.145 56.937C116.415 56.937 113.175 56.3212 110.427 55.0898C107.679 53.8405 105.519 52.1183 103.949 49.9232C102.378 47.728 101.495 45.1849 101.298 42.2937H106.438C106.617 44.4532 107.331 46.2825 108.58 47.7816C109.829 49.2807 111.453 50.4229 113.452 51.2082C115.451 51.9756 117.682 52.3593 120.145 52.3593C122.875 52.3593 125.302 51.9042 127.426 50.994C129.568 50.066 131.245 48.781 132.459 47.1391C133.69 45.4793 134.306 43.5519 134.306 41.3568C134.306 39.5007 133.824 37.948 132.86 36.6988C131.897 35.4316 130.549 34.3698 128.818 33.5131C127.105 32.6565 125.115 31.898 122.848 31.2377L116.29 29.3102C111.989 28.0252 108.651 26.2495 106.278 23.983C103.904 21.7164 102.717 18.8252 102.717 15.3094C102.717 12.3647 103.503 9.77695 105.073 7.54611C106.661 5.29742 108.803 3.54844 111.498 2.29917C114.211 1.03205 117.253 0.398491 120.626 0.398491C124.035 0.398491 127.051 1.02313 129.675 2.2724C132.298 3.52167 134.377 5.24388 135.912 7.43903C137.465 9.61633 138.295 12.097 138.402 14.8811H133.556Z"/>
</mask>
<path d="M0.281469 56H-0.718531V57H0.281469V56ZM0.281469 1.17483V0.174826H-0.718531V1.17483H0.281469ZM27.6941 3.04873L27.2283 3.93365L27.231 3.93508L27.6941 3.04873ZM30.5852 25.3215L29.9818 24.5241L30.5852 25.3215ZM26.1682 27.4898L25.9033 26.5256L25.1682 26.7275V27.4898H26.1682ZM26.1682 27.9182H25.1682V28.8499L26.0976 28.9157L26.1682 27.9182ZM31.308 29.7921L30.7472 30.62L30.7533 30.6241L31.308 29.7921ZM35.4038 34.4501L36.2853 33.9778L35.4038 34.4501ZM35.1629 49.0398L36.0316 49.5351L36.0333 49.5321L35.1629 49.0398ZM29.4877 54.1529L29.9247 55.0523L29.9273 55.051L29.4877 54.1529ZM5.28748 51.5026H4.28748V52.5026H5.28748V51.5026ZM29.1664 48.6918L28.4889 47.9562L28.4857 47.9592L29.1664 48.6918ZM30.6923 35.9492L29.8285 36.4531L29.8348 36.4637L30.6923 35.9492ZM26.4359 31.8801L25.9546 32.7567L25.9582 32.7587L26.4359 31.8801ZM5.28748 30.381V29.381H4.28748V30.381H5.28748ZM5.28748 25.9372H4.28748V26.9372H5.28748V25.9372ZM28.7113 20.9044L27.8461 20.403L28.7113 20.9044ZM27.239 8.42953L26.5421 9.14672L26.5456 9.1501L27.239 8.42953ZM5.28748 5.6722V4.6722H4.28748V5.6722H5.28748ZM1.28147 56V1.17483H-0.718531V56H1.28147ZM0.281469 2.17483H18.7796V0.174826H0.281469V2.17483ZM18.7796 2.17483C22.2382 2.17483 25.0379 2.78079 27.2283 3.93365L28.1598 2.16381C25.603 0.818134 22.4597 0.174826 18.7796 0.174826V2.17483ZM27.231 3.93508C29.4657 5.10242 31.108 6.67412 32.2 8.64624L33.9497 7.67741C32.6502 5.33062 30.7054 3.49359 28.1571 2.16238L27.231 3.93508ZM32.2 8.64624C33.3046 10.6412 33.8684 12.9251 33.8684 15.5236H35.8684C35.8684 12.6253 35.2365 10.0014 33.9497 7.67741L32.2 8.64624ZM33.8684 15.5236C33.8684 17.6991 33.5028 19.4997 32.8132 20.959L34.6215 21.8135C35.4667 20.0247 35.8684 17.9169 35.8684 15.5236H33.8684ZM32.8132 20.959C32.1087 22.4499 31.1631 23.6301 29.9818 24.5241L31.1887 26.1189C32.6486 25.014 33.7911 23.5708 34.6215 21.8135L32.8132 20.959ZM29.9818 24.5241C28.7641 25.4455 27.407 26.1124 25.9033 26.5256L26.4331 28.4541C28.1774 27.9749 29.765 27.1962 31.1887 26.1189L29.9818 24.5241ZM25.1682 27.4898V27.9182H27.1682V27.4898H25.1682ZM26.0976 28.9157C27.6668 29.0266 29.2135 29.5811 30.7472 30.62L31.8689 28.9641C30.083 27.7544 28.2032 27.0596 26.2387 26.9207L26.0976 28.9157ZM30.7533 30.6241C32.2584 31.6275 33.5185 33.0484 34.5224 34.9223L36.2853 33.9778C35.1476 31.8541 33.6771 30.1696 31.8627 28.96L30.7533 30.6241ZM34.5224 34.9223C35.4996 36.7464 36.0101 38.9681 36.0101 41.6245H38.0101C38.0101 38.7127 37.4497 36.1514 36.2853 33.9778L34.5224 34.9223ZM36.0101 41.6245C36.0101 44.2369 35.4302 46.5358 34.2925 48.5475L36.0333 49.5321C37.3585 47.1891 38.0101 44.5445 38.0101 41.6245H36.0101ZM34.2942 48.5444C33.1759 50.5055 31.4465 52.0806 29.048 53.2547L29.9273 55.051C32.633 53.7266 34.6871 51.8929 36.0316 49.5351L34.2942 48.5444ZM29.0506 53.2534C26.6953 54.3979 23.6277 55 19.7969 55V57C23.8186 57 27.2116 56.3707 29.9247 55.0523L29.0506 53.2534ZM19.7969 55H0.281469V57H19.7969V55ZM5.28748 52.5026H19.7969V50.5026H5.28748V52.5026ZM19.7969 52.5026C24.1479 52.5026 27.5677 51.5424 29.8471 49.4243L28.4857 47.9592C26.7318 49.589 23.9052 50.5026 19.7969 50.5026V52.5026ZM29.8439 49.4273C32.0899 47.3586 33.2182 44.7334 33.2182 41.6245H31.2182C31.2182 44.1908 30.3119 46.2771 28.4889 47.9562L29.8439 49.4273ZM33.2182 41.6245C33.2182 39.3657 32.6656 37.2944 31.5498 35.4347L29.8348 36.4637C30.7535 37.9949 31.2182 39.707 31.2182 41.6245H33.2182ZM31.5561 35.4453C30.4595 33.5654 28.9031 32.0833 26.9135 31.0016L25.9582 32.7587C27.6451 33.6758 28.9263 34.9064 29.8285 36.4531L31.5561 35.4453ZM26.9171 31.0036C24.9241 29.9093 22.6108 29.381 20.011 29.381V31.381C22.3369 31.381 24.3069 31.8521 25.9546 32.7567L26.9171 31.0036ZM20.011 29.381H5.28748V31.381H20.011V29.381ZM4.28748 30.381V51.5026H6.28748V30.381H4.28748ZM5.28748 26.9372H19.2347V24.9372H5.28748V26.9372ZM19.2347 26.9372C21.5345 26.9372 23.5972 26.461 25.3915 25.4751L24.4284 23.7222C22.9747 24.521 21.2538 24.9372 19.2347 24.9372V26.9372ZM25.3915 25.4751C27.1717 24.497 28.573 23.1374 29.5765 21.4058L27.8461 20.403C27.0293 21.8124 25.8963 22.9157 24.4284 23.7222L25.3915 25.4751ZM29.5765 21.4058C30.5845 19.6665 31.0766 17.6964 31.0766 15.5236H29.0766C29.0766 17.3842 28.6585 19.0013 27.8461 20.403L29.5765 21.4058ZM31.0766 15.5236C31.0766 12.3751 30.0422 9.73919 27.9323 7.70895L26.5456 9.1501C28.2192 10.7606 29.0766 12.8541 29.0766 15.5236H31.0766ZM27.9358 7.71234C25.7911 5.62832 22.6776 4.6722 18.7796 4.6722V6.6722C22.3772 6.6722 24.9033 7.5543 26.5421 9.14671L27.9358 7.71234ZM18.7796 4.6722H5.28748V6.6722H18.7796V4.6722ZM4.28748 5.6722V25.9372H6.28748V5.6722H4.28748ZM92.0293 18.3077V19.3077H93.2207L93.0142 18.1343L92.0293 18.3077ZM86.9965 18.3077L86.0159 18.5038L86.1767 19.3077H86.9965V18.3077ZM84.962 13.1143L84.1044 13.6288L84.1113 13.64L84.962 13.1143ZM81.3213 8.91139L80.6885 9.68577L81.3213 8.91139ZM76.342 6.12729L76.6772 5.18514L76.342 6.12729ZM60.8421 7.84058L60.3083 6.99496L60.306 6.99648L60.8421 7.84058ZM54.0158 15.7913L53.1177 15.3514L53.1168 15.3533L54.0158 15.7913ZM54.0158 41.4371L53.1168 41.875L53.1186 41.8787L54.0158 41.4371ZM60.8421 49.361L60.3059 50.2051L60.3121 50.209L60.8421 49.361ZM76.342 51.0475L76.0068 50.1054L76.342 51.0475ZM81.3213 48.2902L81.9483 49.0692L81.954 49.0646L81.3213 48.2902ZM84.962 44.0873L84.1087 43.5658L84.1045 43.5728L84.962 44.0873ZM86.9965 38.8671V37.8671H86.1767L86.0159 38.671L86.9965 38.8671ZM92.0293 38.8671L93.014 39.0417L93.2222 37.8671H92.0293V38.8671ZM89.5129 45.9077L88.6425 45.4154L88.6412 45.4178L89.5129 45.9077ZM84.8549 51.5829L84.2035 50.8242L84.2 50.8272L84.8549 51.5829ZM58.058 53.2962L57.5131 54.1347L57.516 54.1366L58.058 53.2962ZM49.6522 43.4984L48.7503 43.9302L48.7518 43.9333L49.6522 43.4984ZM49.6522 13.6765L48.7518 13.2415L48.7503 13.2446L49.6522 13.6765ZM58.058 3.90537L58.6001 4.74574L58.603 4.74382L58.058 3.90537ZM78.3766 1.79054L78.0277 2.72773L78.0337 2.72993L78.3766 1.79054ZM84.8549 5.59189L84.1959 6.34406L84.2035 6.35064L84.8549 5.59189ZM89.5129 11.2672L88.6411 11.7571L88.6442 11.7625L89.5129 11.2672ZM92.0293 17.3077H86.9965V19.3077H92.0293V17.3077ZM87.9771 18.1116C87.5795 16.1237 86.8583 14.2806 85.8127 12.5886L84.1113 13.64C85.0288 15.1247 85.664 16.7438 86.0159 18.5038L87.9771 18.1116ZM85.8195 12.5998C84.7959 10.8937 83.506 9.40509 81.954 8.13701L80.6885 9.68577C82.0634 10.8091 83.2007 12.1224 84.1045 13.6288L85.8195 12.5998ZM81.954 8.13701C80.398 6.86565 78.6367 5.88227 76.6772 5.18514L76.0068 7.06944C77.7595 7.69298 79.3177 8.56566 80.6885 9.68577L81.954 8.13701ZM76.6772 5.18514C74.7037 4.48302 72.5815 4.1368 70.3188 4.1368V6.1368C72.375 6.1368 74.2682 6.45091 76.0068 7.06944L76.6772 5.18514ZM70.3188 4.1368C66.6726 4.1368 63.3278 5.08893 60.3083 6.99497L61.3759 8.6862C64.0674 6.98719 67.0404 6.1368 70.3188 6.1368V4.1368ZM60.306 6.99648C57.2894 8.91264 54.899 11.7147 53.1177 15.3514L54.9138 16.2312C56.5591 12.872 58.7196 10.3736 61.3783 8.68468L60.306 6.99648ZM53.1168 15.3533C51.3378 19.0049 50.4726 23.4295 50.4726 28.5874H52.4726C52.4726 23.6441 53.3028 19.5379 54.9148 16.2293L53.1168 15.3533ZM50.4726 28.5874C50.4726 33.7798 51.3374 38.2226 53.1168 41.875L54.9148 40.9991C53.3032 37.6913 52.4726 33.5677 52.4726 28.5874H50.4726ZM53.1186 41.8787C54.9003 45.4978 57.2907 48.2898 60.306 50.2051L61.3783 48.5169C58.7183 46.8272 56.5578 44.3366 54.9129 40.9954L53.1186 41.8787ZM60.3121 50.209C63.3312 52.0959 66.6746 53.038 70.3188 53.038V51.038C67.0383 51.038 64.064 50.1954 61.3721 48.513L60.3121 50.209ZM70.3188 53.038C72.5815 53.038 74.7037 52.6918 76.6772 51.9897L76.0068 50.1054C74.2682 50.7239 72.375 51.038 70.3188 51.038V53.038ZM76.6772 51.9897C78.6338 51.2936 80.3932 50.3209 81.9483 49.0692L80.6943 47.5112C79.3224 48.6153 77.7624 49.4808 76.0068 50.1054L76.6772 51.9897ZM81.954 49.0646C83.506 47.7965 84.7959 46.3078 85.8195 44.6018L84.1045 43.5728C83.2007 45.0792 82.0634 46.3924 80.6885 47.5158L81.954 49.0646ZM85.8153 44.6088C86.859 42.9009 87.5797 41.0504 87.9771 39.0632L86.0159 38.671C85.6638 40.4316 85.0282 42.0613 84.1087 43.5659L85.8153 44.6088ZM86.9965 39.8671H92.0293V37.8671H86.9965V39.8671ZM91.0447 38.6926C90.6179 41.0998 89.8169 43.3389 88.6425 45.4154L90.3833 46.4C91.6718 44.1218 92.5484 41.6673 93.014 39.0417L91.0447 38.6926ZM88.6412 45.4178C87.4852 47.4747 86.0073 49.2757 84.2035 50.8242L85.5063 52.3417C87.4861 50.6421 89.1135 48.6595 90.3847 46.3976L88.6412 45.4178ZM84.2 50.8272C82.4211 52.369 80.3665 53.5764 78.0277 54.4471L78.7254 56.3215C81.2766 55.3718 83.541 54.045 85.5098 52.3386L84.2 50.8272ZM78.0277 54.4471C75.7071 55.311 73.1409 55.7496 70.3188 55.7496V57.7496C73.3503 57.7496 76.1561 57.2779 78.7254 56.3215L78.0277 54.4471ZM70.3188 55.7496C65.8897 55.7496 61.9943 54.6451 58.6001 52.4559L57.516 54.1366C61.2605 56.5518 65.5389 57.7496 70.3188 57.7496V55.7496ZM58.603 52.4578C55.2017 50.2469 52.5159 47.1276 50.5527 43.0634L48.7518 43.9333C50.8576 48.2928 53.7757 51.7054 57.5131 54.1347L58.603 52.4578ZM50.5542 43.0665C48.615 39.0165 47.6272 34.2 47.6272 28.5874H45.6272C45.6272 34.4325 46.6561 39.5565 48.7503 43.9302L50.5542 43.0665ZM47.6272 28.5874C47.6272 22.9749 48.615 18.1583 50.5542 14.1083L48.7503 13.2446C46.6561 17.6183 45.6272 22.7424 45.6272 28.5874H47.6272ZM50.5527 14.1114C52.5156 10.0478 55.2006 6.93842 58.6001 4.74573L57.516 3.06502C53.7768 5.47679 50.8579 8.88146 48.7518 13.2415L50.5527 14.1114ZM58.603 4.74382C61.9969 2.53781 65.8913 1.42526 70.3188 1.42526V-0.574738C65.5373 -0.574738 61.2579 0.632786 57.5131 3.06693L58.603 4.74382ZM70.3188 1.42526C73.1409 1.42526 75.7071 1.86382 78.0277 2.72771L78.7254 0.853369C76.1561 -0.103117 73.3503 -0.574738 70.3188 -0.574738V1.42526ZM78.0337 2.72993C80.3679 3.58183 82.419 4.78715 84.1959 6.34402L85.5139 4.83976C83.543 3.11284 81.2752 1.78392 78.7194 0.851147L78.0337 2.72993ZM84.2035 6.35064C86.0073 7.89915 87.4852 9.70009 88.6412 11.7571L90.3847 10.7772C89.1135 8.51532 87.4861 6.53275 85.5063 4.83314L84.2035 6.35064ZM88.6442 11.7625C89.8167 13.8186 90.6175 16.056 91.0445 18.4811L93.0142 18.1343C92.5488 15.4909 91.672 13.0346 90.3816 10.7718L88.6442 11.7625ZM133.556 14.8811L132.561 14.98L132.651 15.8811H133.556V14.8811ZM129.514 7.59965L130.116 6.80108L129.514 7.59965ZM113.747 6.20761L113.337 5.29552L113.333 5.29695L113.747 6.20761ZM109.196 9.84834L108.381 9.26798L108.38 9.2698L109.196 9.84834ZM108.5 18.8966L107.632 19.3943L108.5 18.8966ZM111.016 21.7075L110.418 22.5091L110.426 22.5148L110.433 22.5203L111.016 21.7075ZM114.55 23.6885L114.154 24.607L114.159 24.6089L114.55 23.6885ZM118.485 25.0805L118.761 24.1193L118.758 24.1185L118.485 25.0805ZM124.267 26.7403L123.991 27.7015L124.002 27.7044L124.267 26.7403ZM134.306 31.425L133.686 32.2098L133.697 32.218L134.306 31.425ZM137.813 35.5744L136.93 36.0445L136.936 36.056L137.813 35.5744ZM136.876 49.3342L136.037 48.7899L136.876 49.3342ZM130.344 54.9024L130.775 55.8047L130.78 55.8024L130.344 54.9024ZM110.427 55.0898L110.013 56.0002L110.018 56.0024L110.427 55.0898ZM101.298 42.2937V41.2937H100.228L100.301 42.3615L101.298 42.2937ZM106.438 42.2937L107.435 42.2113L107.359 41.2937H106.438V42.2937ZM113.452 51.2082L113.086 52.1389L113.094 52.1417L113.452 51.2082ZM127.426 50.994L127.82 51.9131L127.824 51.9115L127.426 50.994ZM132.459 47.1391L131.656 46.5432L131.655 46.5447L132.459 47.1391ZM132.86 36.6988L132.064 37.3041L132.069 37.3096L132.86 36.6988ZM128.818 33.5131L128.371 34.4075L128.375 34.4094L128.818 33.5131ZM122.848 31.2377L122.566 32.1971L122.569 32.1977L122.848 31.2377ZM116.29 29.3102L116.003 30.2684L116.008 30.2696L116.29 29.3102ZM106.278 23.983L106.968 23.2597L106.278 23.983ZM105.073 7.54611L104.256 6.96917L104.255 6.97046L105.073 7.54611ZM111.498 2.29917L111.918 3.20643L111.921 3.2052L111.498 2.29917ZM129.675 2.2724L129.245 3.17526L129.675 2.2724ZM135.912 7.43903L135.093 8.01207L135.098 8.01963L135.912 7.43903ZM138.402 14.8811V15.8811H139.441L139.401 14.8427L138.402 14.8811ZM134.552 14.7822C134.221 11.4601 132.737 8.77623 130.116 6.80108L128.912 8.39822C131.075 10.0281 132.285 12.1985 132.561 14.98L134.552 14.7822ZM130.116 6.80108C127.517 4.84224 124.286 3.89587 120.493 3.89587V5.89587C123.945 5.89587 126.728 6.75202 128.912 8.39822L130.116 6.80108ZM120.493 3.89587C117.827 3.89587 115.434 4.35283 113.337 5.29553L114.157 7.11968C115.95 6.3134 118.055 5.89587 120.493 5.89587V3.89587ZM113.333 5.29695C111.264 6.23604 109.601 7.55641 108.381 9.26799L110.01 10.4287C111.003 9.03493 112.375 7.92815 114.16 7.11826L113.333 5.29695ZM108.38 9.2698C107.166 10.9813 106.563 12.9344 106.563 15.0953H108.563C108.563 13.3299 109.048 11.785 110.011 10.4269L108.38 9.2698ZM106.563 15.0953C106.563 16.6886 106.908 18.1325 107.632 19.3943L109.367 18.399C108.842 17.4835 108.563 16.3931 108.563 15.0953H106.563ZM107.632 19.3943C108.328 20.6072 109.261 21.6459 110.418 22.5091L111.614 20.9059C110.665 20.1985 109.92 19.3634 109.367 18.399L107.632 19.3943ZM110.433 22.5203C111.566 23.3321 112.807 24.0271 114.154 24.607L114.945 22.77C113.722 22.2434 112.607 21.6178 111.599 20.8947L110.433 22.5203ZM114.159 24.6089C115.499 25.178 116.85 25.656 118.212 26.0425L118.758 24.1185C117.479 23.7555 116.206 23.3055 114.941 22.768L114.159 24.6089ZM118.209 26.0417L123.991 27.7015L124.543 25.7791L118.761 24.1193L118.209 26.0417ZM124.002 27.7044C125.705 28.1736 127.411 28.774 129.12 29.5066L129.908 27.6683C128.119 26.9017 126.328 26.2707 124.533 25.7762L124.002 27.7044ZM129.12 29.5066C130.791 30.2226 132.312 31.1239 133.686 32.2097L134.926 30.6404C133.409 29.4419 131.735 28.4514 129.908 27.6683L129.12 29.5066ZM133.697 32.218C135.046 33.2548 136.122 34.5275 136.93 36.0445L138.695 35.1043C137.755 33.3376 136.493 31.844 134.915 30.6321L133.697 32.218ZM136.936 36.056C137.731 37.5019 138.151 39.2823 138.151 41.4371H140.151C140.151 39.0231 139.68 36.8951 138.689 35.0929L136.936 36.056ZM138.151 41.4371C138.151 44.1809 137.443 46.6224 136.037 48.7899L137.715 49.8786C139.342 47.3702 140.151 44.5469 140.151 41.4371H138.151ZM136.037 48.7899C134.632 50.9554 132.604 52.6971 129.908 54.0024L130.78 55.8024C133.76 54.3594 136.086 52.389 137.715 49.8786L136.037 48.7899ZM129.913 54.0002C127.24 55.2777 123.995 55.937 120.145 55.937V57.937C124.218 57.937 127.773 57.2398 130.775 55.8047L129.913 54.0002ZM120.145 55.937C116.523 55.937 113.429 55.339 110.836 54.1772L110.018 56.0024C112.922 57.3035 116.306 57.937 120.145 57.937V55.937ZM110.841 54.1795C108.233 52.994 106.219 51.3775 104.762 49.3413L103.135 50.5051C104.82 52.8592 107.125 54.6871 110.013 56.0002L110.841 54.1795ZM104.762 49.3413C103.307 47.3083 102.481 44.9462 102.296 42.226L100.301 42.3615C100.509 45.4236 101.449 48.1478 103.135 50.5051L104.762 49.3413ZM101.298 43.2937H106.438V41.2937H101.298V43.2937ZM105.442 42.3761C105.635 44.7169 106.416 46.7473 107.812 48.4218L109.348 47.1414C108.245 45.8176 107.598 44.1894 107.435 42.2113L105.442 42.3761ZM107.812 48.4218C109.179 50.0627 110.947 51.2985 113.086 52.1389L113.818 50.2774C111.959 49.5473 110.479 48.4987 109.348 47.1414L107.812 48.4218ZM113.094 52.1417C115.223 52.9591 117.577 53.3593 120.145 53.3593V51.3593C117.786 51.3593 115.679 50.992 113.811 50.2746L113.094 52.1417ZM120.145 53.3593C122.986 53.3593 125.551 52.8855 127.82 51.9131L127.032 50.0748C125.053 50.9229 122.764 51.3593 120.145 51.3593V53.3593ZM127.824 51.9115C130.103 50.9237 131.931 49.5363 133.263 47.7335L131.655 46.5447C130.56 48.0257 129.032 49.2083 127.028 50.0764L127.824 51.9115ZM133.262 47.7349C134.629 45.8918 135.306 43.7523 135.306 41.3568H133.306C133.306 43.3515 132.751 45.0669 131.656 46.5432L133.262 47.7349ZM135.306 41.3568C135.306 39.3201 134.774 37.5418 133.652 36.088L132.069 37.3096C132.875 38.3543 133.306 39.6812 133.306 41.3568H135.306ZM133.656 36.0934C132.581 34.6799 131.102 33.5276 129.262 32.6168L128.375 34.4094C129.996 35.212 131.212 36.1833 132.064 37.3041L133.656 36.0934ZM129.265 32.6187C127.488 31.7298 125.44 30.951 123.128 30.2776L122.569 32.1977C124.79 32.845 126.722 33.5831 128.371 34.4075L129.265 32.6187ZM123.13 30.2782L116.572 28.3508L116.008 30.2696L122.566 32.1971L123.13 30.2782ZM116.576 28.3521C112.374 27.0965 109.193 25.3845 106.968 23.2597L105.587 24.7062C108.109 27.1145 111.604 28.9539 116.003 30.2684L116.576 28.3521ZM106.968 23.2597C104.807 21.1964 103.717 18.5737 103.717 15.3094H101.717C101.717 19.0768 103.001 22.2365 105.587 24.7062L106.968 23.2597ZM103.717 15.3094C103.717 12.5536 104.448 10.1705 105.891 8.12177L104.255 6.97046C102.557 9.38337 101.717 12.1759 101.717 15.3094H103.717ZM105.89 8.12305C107.369 6.02843 109.369 4.38813 111.918 3.20642L111.077 1.39191C108.237 2.70876 105.953 4.56642 104.256 6.96917L105.89 8.12305ZM111.921 3.2052C114.485 2.00739 117.381 1.39849 120.626 1.39849V-0.601509C117.126 -0.601509 113.936 0.056715 111.075 1.39314L111.921 3.2052ZM120.626 1.39849C123.912 1.39849 126.777 2.0001 129.245 3.17526L130.105 1.36954C127.326 0.0461597 124.158 -0.601509 120.626 -0.601509V1.39849ZM129.245 3.17526C131.726 4.35664 133.665 5.97059 135.093 8.01204L136.732 6.86601C135.089 4.51717 132.871 2.6867 130.105 1.36954L129.245 3.17526ZM135.098 8.01963C136.533 10.0313 137.303 12.3218 137.403 14.9196L139.401 14.8427C139.287 11.8723 138.397 9.2014 136.726 6.85842L135.098 8.01963ZM138.402 13.8811H133.556V15.8811H138.402V13.8811Z" fill="url(#paint0_linear_5_79)" mask="url(#path-1-outside-1_5_79)"/>
<defs>
<linearGradient id="paint0_linear_5_79" x1="1.22449" y1="32" x2="120.696" y2="32" gradientUnits="userSpaceOnUse">
<stop stop-color="#FF8DC4"/>
<stop offset="1" stop-color="#63ECFF"/>
</linearGradient>
</defs>
</svg>
